/* XPM */
static char * arora_xpm[] = {
"32 32 563 2",
"  	c None",
". 	c #6B7691",
"+ 	c #6E7B93",
"@ 	c #6F7B95",
"# 	c #6F7A94",
"$ 	c #717C95",
"% 	c #727E97",
"& 	c #BBC3D0",
"* 	c #CED5DF",
"= 	c #CCD4DD",
"- 	c #C5CDD8",
"; 	c #BCC6D2",
"> 	c #ADB7C5",
", 	c #97A3B5",
"' 	c #7C88A0",
") 	c #69758F",
"! 	c #79869E",
"~ 	c #CED5DE",
"{ 	c #DFE4E8",
"] 	c #E2E8E9",
"^ 	c #E1E7E7",
"/ 	c #D9E0E0",
"( 	c #CED7D9",
"_ 	c #C5CED4",
": 	c #C0C9D2",
"< 	c #BEC7D2",
"[ 	c #B6C2CB",
"} 	c #6E7B94",
"| 	c #6E7B95",
"1 	c #E4E6EB",
"2 	c #F5F7F6",
"3 	c #F0F1F1",
"4 	c #E8EBEA",
"5 	c #DDE3E3",
"6 	c #D3DBDB",
"7 	c #CAD2D2",
"8 	c #C9D2D3",
"9 	c #CBD4D3",
"0 	c #C2CCD1",
"a 	c #BDC6D1",
"b 	c #B6C0CD",
"c 	c #76829D",
"d 	c #65738D",
"e 	c #E8ECEB",
"f 	c #FAFBFA",
"g 	c #F3F6F6",
"h 	c #EBEDED",
"i 	c #E0E6E6",
"j 	c #D7DDDF",
"k 	c #CCD4D4",
"l 	c #C6CFD0",
"m 	c #C8D1D1",
"n 	c #C8D1D2",
"o 	c #BAC4D1",
"p 	c #71809A",
"q 	c #62708B",
"r 	c #DEE0E4",
"s 	c #FEFFFD",
"t 	c #FBFAFA",
"u 	c #EFF1F2",
"v 	c #E5E9E9",
"w 	c #DBDEE1",
"x 	c #CED7D7",
"y 	c #C4CECF",
"z 	c #C7D0D2",
"A 	c #CAD3D3",
"B 	c #BEC8D1",
"C 	c #C1CAD6",
"D 	c #98A3B8",
"E 	c #62718C",
"F 	c #D6DAE0",
"G 	c #FFFFFF",
"H 	c #F4F5F6",
"I 	c #E8ECEC",
"J 	c #DDE1E4",
"K 	c #D1D8DA",
"L 	c #C7D0D1",
"M 	c #C5D0D0",
"N 	c #C4CDD1",
"O 	c #CBD4D5",
"P 	c #CCD5D5",
"Q 	c #C4CDD2",
"R 	c #C1CAD5",
"S 	c #B4C0CF",
"T 	c #57647A",
"U 	c #677490",
"V 	c #E0E4E6",
"W 	c #F9F9F8",
"X 	c #EBEFF0",
"Y 	c #E1E6E6",
"Z 	c #D4DCDC",
"` 	c #CBD3D3",
" .	c #C0CACF",
"..	c #BEC9D2",
"+.	c #B0B9C4",
"@.	c #D3D9DA",
"#.	c #D7DDDD",
"$.	c #CAD1D6",
"%.	c #C0C9D4",
"&.	c #C6D1DD",
"*.	c #6F7C95",
"=.	c #6F7B94",
"-.	c #E7EBEC",
";.	c #FEFFFE",
">.	c #F9FBFA",
",.	c #EEF1F1",
"'.	c #E4E6E9",
").	c #CDD4D6",
"!.	c #CED6D6",
"~.	c #C3CED0",
"{.	c #B8C5D2",
"].	c #818DA2",
"^.	c #B5C0CB",
"/.	c #9BAAB9",
"(.	c #B7BDC8",
"_.	c #DCE0E0",
":.	c #CDD6D8",
"<.	c #C5CFDB",
"[.	c #6F7B93",
"}.	c #7A869E",
"|.	c #79869C",
"1.	c #EBEEEE",
"2.	c #F8F7F7",
"3.	c #FDFFFD",
"4.	c #F0F3F2",
"5.	c #E6E9EA",
"6.	c #DCE2E2",
"7.	c #D5DCDC",
"8.	c #D0D8D8",
"9.	c #C1CBD3",
"0.	c #AAB7C8",
"a.	c #6D7F9B",
"b.	c #A3B0C1",
"c.	c #AAB1C0",
"d.	c #E4E8E8",
"e.	c #D3DADA",
"f.	c #BECAD4",
"g.	c #C6D1DB",
"h.	c #6E7A94",
"i.	c #76839B",
"j.	c #808B9F",
"k.	c #ECEFEE",
"l.	c #D0D5DC",
"m.	c #A0A8BB",
"n.	c #EFF1F3",
"o.	c #F1F4F3",
"p.	c #E9EBEA",
"q.	c #E1E4E5",
"r.	c #D9DFDD",
"s.	c #CED6D5",
"t.	c #CDD5D4",
"u.	c #D8DFDE",
"v.	c #E8ECEA",
"w.	c #BAC5D3",
"x.	c #97A7B9",
"y.	c #6A7E9A",
"z.	c #B0B8C1",
"A.	c #F2F3F0",
"B.	c #D7DFDE",
"C.	c #C4CED5",
"D.	c #CAD4DD",
"E.	c #74819B",
"F.	c #687590",
"G.	c #E1E6E5",
"H.	c #A8B8C8",
"I.	c #C3CDDA",
"J.	c #EAEEEC",
"K.	c #E2E6E6",
"L.	c #D3D7D8",
"M.	c #8F9AAA",
"N.	c #6D7A94",
"O.	c #6B7793",
"P.	c #B6BEC4",
"Q.	c #EFF2EF",
"R.	c #DFE4E3",
"S.	c #CCD4D5",
"T.	c #B9C5D6",
"U.	c #6D7E9C",
"V.	c #6C839A",
"W.	c #F6F7F3",
"X.	c #E2E7E5",
"Y.	c #D6DDDF",
"Z.	c #C6D2DC",
"`.	c #7D89A4",
" +	c #98A2B2",
".+	c #EAEDEB",
"++	c #EDF2EF",
"@+	c #EBF0F1",
"#+	c #EDF0EF",
"$+	c #E9ECEA",
"%+	c #DADEDF",
"&+	c #8B96A8",
"*+	c #6B7A93",
"=+	c #6186A1",
"-+	c #4878A2",
";+	c #305392",
">+	c #5C6B8E",
",+	c #B1B9C3",
"'+	c #F1F3F0",
")+	c #D2D9D7",
"!+	c #C2CDD6",
"~+	c #8394AB",
"{+	c #114E7D",
"]+	c #818CA2",
"^+	c #EEF1ED",
"/+	c #E1E7E5",
"(+	c #D0D9E0",
"_+	c #A8B4C4",
":+	c #5E6D89",
"<+	c #BBC2CA",
"[+	c #E9EDEC",
"}+	c #E9EDED",
"|+	c #E5EAE9",
"1+	c #C2C9CE",
"2+	c #6D7A93",
"3+	c #7692AC",
"4+	c #79A0B7",
"5+	c #83B2C5",
"6+	c #85BCCD",
"7+	c #4163A3",
"8+	c #315393",
"9+	c #6E7994",
"0+	c #EEF1EC",
"a+	c #D9E0DC",
"b+	c #C4CED9",
"c+	c #7888A1",
"d+	c #0D3675",
"e+	c #13306C",
"f+	c #8798A8",
"g+	c #E4E8E7",
"h+	c #DEE4E5",
"i+	c #CFD8E2",
"j+	c #7885A0",
"k+	c #65738E",
"l+	c #B5BDCE",
"m+	c #C6CBD8",
"n+	c #C4C9D4",
"o+	c #E4E9E6",
"p+	c #E1E5E4",
"q+	c #768399",
"r+	c #91ABBF",
"s+	c #9ABACB",
"t+	c #B5DBE4",
"u+	c #ABD6E2",
"v+	c #9BCDD9",
"w+	c #5782AE",
"x+	c #315292",
"y+	c #5C6B8D",
"z+	c #DBDEDD",
"A+	c #E2E5E2",
"B+	c #C6D0DA",
"C+	c #747F98",
"D+	c #0E2C6E",
"E+	c #0B2B6D",
"F+	c #0E4475",
"G+	c #8C9CAD",
"H+	c #EBEEEC",
"I+	c #D8E0E7",
"J+	c #9BA6BC",
"K+	c #727F97",
"L+	c #E3E9E8",
"M+	c #E5EAE7",
"N+	c #DFE3E2",
"O+	c #DBE1DE",
"P+	c #8A95A6",
"Q+	c #8A99AD",
"R+	c #A8BECE",
"S+	c #D3F0F1",
"T+	c #C5E7EC",
"U+	c #B0D9E1",
"V+	c #9DCDDA",
"W+	c #5F8BB1",
"X+	c #294889",
"Y+	c #334A80",
"Z+	c #B3B8C1",
"`+	c #E7EAE5",
" @	c #C8D4DC",
".@	c #6C7993",
"+@	c #0D2E6B",
"@@	c #0E2E6F",
"#@	c #496A8D",
"$@	c #C2C7CF",
"%@	c #DFE6E3",
"&@	c #D2DAE3",
"*@	c #97A3B9",
"=@	c #A2ABBA",
"-@	c #E4E9E8",
";@	c #DFE5E2",
">@	c #C9CFD2",
",@	c #79869B",
"'@	c #7089A8",
")@	c #99B1C5",
"!@	c #CDE2E8",
"~@	c #DEF8F9",
"{@	c #C6E6EB",
"]@	c #AFD7E0",
"^@	c #9CCBD8",
"/@	c #85BBCD",
"(@	c #5B92B1",
"_@	c #4E8AAB",
":@	c #8D98A9",
"<@	c #EAEDE7",
"[@	c #C8D2D9",
"}@	c #6A7894",
"|@	c #0F2E6F",
"1@	c #143371",
"2@	c #7C889D",
"3@	c #EDF1E8",
"4@	c #D4DBDF",
"5@	c #99A3B8",
"6@	c #6C768B",
"7@	c #697891",
"8@	c #797C86",
"9@	c #CAD1CF",
"0@	c #878B96",
"a@	c #7B8AA0",
"b@	c #4D6E9C",
"c@	c #294986",
"d@	c #2F4F8E",
"e@	c #5273A6",
"f@	c #D6F4F4",
"g@	c #C0E4E9",
"h@	c #AAD3DE",
"i@	c #98C7D5",
"j@	c #71AFC4",
"k@	c #57A2BA",
"l@	c #777F97",
"m@	c #EEF1E8",
"n@	c #D3DBDF",
"o@	c #7C869D",
"p@	c #133170",
"q@	c #173673",
"r@	c #487394",
"s@	c #8591A3",
"t@	c #7C8EA4",
"u@	c #355B8A",
"v@	c #707682",
"w@	c #7A7F8C",
"x@	c #6F83A0",
"y@	c #76A2BB",
"z@	c #2F4F89",
"A@	c #395993",
"B@	c #365591",
"C@	c #2C4A89",
"D@	c #B5D9E2",
"E@	c #B5DDE5",
"F@	c #A1CED9",
"G@	c #90C2D1",
"H@	c #7EB7C9",
"I@	c #6AABC2",
"J@	c #539FB9",
"K@	c #6A7A95",
"L@	c #E9E6E2",
"M@	c #A9AFBC",
"N@	c #657191",
"O@	c #183774",
"P@	c #1D3976",
"Q@	c #1D3A75",
"R@	c #094C83",
"S@	c #006393",
"T@	c #26679D",
"U@	c #374461",
"V@	c #456894",
"W@	c #5E87AB",
"X@	c #375793",
"Y@	c #33548D",
"Z@	c #2C4984",
"`@	c #466596",
" #	c #A6D4DC",
".#	c #96C8D6",
"+#	c #87BCCD",
"@#	c #76B0C6",
"##	c #65A5BD",
"$#	c #509BB5",
"%#	c #4083A2",
"&#	c #6E7893",
"*#	c #4F5D86",
"=#	c #193572",
"-#	c #1E3A76",
";#	c #223E78",
">#	c #1D3774",
",#	c #08246A",
"'#	c #082B72",
")#	c #2A5B90",
"!#	c #3B5D8C",
"~#	c #72A0C4",
"{#	c #385692",
"]#	c #35538C",
"^#	c #2F4E88",
"/#	c #2A4480",
"(#	c #1E3776",
"_#	c #5A82A5",
":#	c #8AC0D0",
"<#	c #7AB4C7",
"[#	c #6CA9C0",
"}#	c #5B9FB9",
"|#	c #4B95B2",
"1#	c #388DAC",
"2#	c #2680A3",
"3#	c #193E78",
"4#	c #203975",
"5#	c #233E78",
"6#	c #1B3674",
"7#	c #0C296C",
"8#	c #0C276C",
"9#	c #136398",
"0#	c #20437C",
"a#	c #1C3E73",
"b#	c #6E98C0",
"c#	c #324F8B",
"d#	c #2F4D86",
"e#	c #2A4781",
"f#	c #243F7A",
"g#	c #345286",
"h#	c #7CAFC5",
"i#	c #7AB7CA",
"j#	c #6EABC1",
"k#	c #60A2BB",
"l#	c #5298B4",
"m#	c #4490AD",
"n#	c #3288A7",
"o#	c #2380A3",
"p#	c #18618E",
"q#	c #233975",
"r#	c #132E6E",
"s#	c #0C286B",
"t#	c #0D276B",
"u#	c #024D85",
"v#	c #2987B5",
"w#	c #12376B",
"x#	c #092D68",
"y#	c #608BB6",
"z#	c #2B4882",
"A#	c #284680",
"B#	c #26407B",
"C#	c #1F3874",
"D#	c #49759C",
"E#	c #77BACA",
"F#	c #6BACC2",
"G#	c #5FA2BB",
"H#	c #5499B5",
"I#	c #4792AE",
"J#	c #3A89A8",
"K#	c #2B81A3",
"L#	c #1B7A9D",
"M#	c #0F6D96",
"N#	c #0F256A",
"O#	c #0D2769",
"P#	c #0F266A",
"Q#	c #05457E",
"R#	c #00739D",
"S#	c #307EB0",
"T#	c #0E2B5C",
"U#	c #315A8E",
"V#	c #254180",
"W#	c #213E78",
"X#	c #213C77",
"Y#	c #203974",
"Z#	c #1F3673",
"`#	c #5E9EB9",
" $	c #5BA2BA",
".$	c #5098B4",
"+$	c #4690AE",
"@$	c #3B89A8",
"#$	c #2C7EA2",
"$$	c #11739A",
"%$	c #006893",
"&$	c #005283",
"*$	c #0F2367",
"=$	c #102569",
"-$	c #06437D",
";$	c #007198",
">$	c #167FAC",
",$	c #2C5187",
"'$	c #05295E",
")$	c #315392",
"!$	c #0E2A6E",
"~$	c #122E6E",
"{$	c #193070",
"]$	c #1D316E",
"^$	c #4382A6",
"/$	c #4594B1",
"($	c #3A8BAA",
"_$	c #2C81A4",
":$	c #19759B",
"<$	c #036A93",
"[$	c #006490",
"}$	c #006992",
"|$	c #0B3373",
"1$	c #102568",
"2$	c #054880",
"3$	c #006F97",
"4$	c #02769F",
"5$	c #3773A4",
"6$	c #0E2654",
"7$	c #11326D",
"8$	c #37649F",
"9$	c #1A598E",
"0$	c #0C2B6E",
"a$	c #123C78",
"b$	c #2887A8",
"c$	c #207EA2",
"d$	c #16769D",
"e$	c #0B6E96",
"f$	c #006791",
"g$	c #00648F",
"h$	c #006690",
"i$	c #005D8B",
"j$	c #0A3674",
"k$	c #00638F",
"l$	c #006D98",
"m$	c #00709B",
"n$	c #3184B2",
"o$	c #1A3972",
"p$	c #254E80",
"q$	c #3C90B9",
"r$	c #1985A9",
"s$	c #157BA1",
"t$	c #11799E",
"u$	c #097098",
"v$	c #016A94",
"w$	c #006691",
"x$	c #006892",
"y$	c #006994",
"z$	c #006A95",
"A$	c #006D97",
"B$	c #00729E",
"C$	c #2E82B2",
"D$	c #294B83",
"E$	c #1C3972",
"F$	c #3874A6",
"G$	c #117BA6",
"H$	c #006A96",
"I$	c #006894",
"J$	c #006793",
"K$	c #006995",
"L$	c #006B97",
"M$	c #006D99",
"N$	c #157CAA",
"O$	c #3870A5",
"P$	c #1E3B74",
"Q$	c #0D2A5F",
"R$	c #2F588D",
"S$	c #2F7EAF",
"T$	c #2180AF",
"U$	c #0F77A5",
"V$	c #006E9B",
"W$	c #00709D",
"X$	c #137AA7",
"Y$	c #2581B2",
"Z$	c #347DAE",
"`$	c #2F5289",
" %	c #142C5A",
".%	c #143266",
"+%	c #203D74",
"@%	c #324E86",
"#%	c #3B659B",
"$%	c #3970A3",
"%%	c #3B6498",
"&%	c #334C84",
"*%	c #213C75",
"=%	c #163465",
"-%	c #141D3E",
"                              . + @ # $                         ",
"                            % & * = - ; > , ' )                 ",
"                          ! ~ { ] ^ / ( _ : < [ }               ",
"                        | 1 2 3 4 5 6 7 8 9 0 a b c             ",
"                      d e f g h i j k l m n 8 0 < o p           ",
"                    q r s t u v w x y l z n n A B C D           ",
"                  E F G G H I J K L M z N n O P Q R S T         ",
"                U V G G W X Y Z `  .z 7 ..+.@.#.$.%.&.*.        ",
"              =.-.;.G >.,.'.j ).!.~.{.].^./.(._.:.%.<.[.        ",
"          }.|.1.2.3.f 4.5.6.@.l 7.8.9.0.a.b.c.d.e.f.g.h.        ",
"        i.j.k.l.m.n.o.p.q.r.s.t.u.v.P w.x.y.z.A.B.C.D.E.        ",
"        F.G.5.H.I.I J.K.L.M.N.O.P.Q.R.S.T.U.V.W.X.Y.Z.`.        ",
"         +.+++@+#+$+%+&+*+=+-+;+>+,+'+)+!+~+{+]+^+/+(+_+        ",
"      :+<+[+}+[+|+1+2+3+4+5+6+7+8+9+0+a+b+c+d+e+f+g+h+i+j+      ",
"      k+l+m+n+o+p+q+r+s+t+u+v+w+x+y+z+A+B+C+D+E+F+G+H+I+J+      ",
"      K+L+M+N+O+P+Q+R+S+T+U+V+W+X+Y+Z+`+ @.@+@@@#@$@%@&@*@      ",
"      =@-@;@>@,@'@)@!@~@{@]@^@/@(@_@:@<@[@}@|@1@2@3@4@5@6@      ",
"    7@8@9@0@a@b@c@d@e@f@g@h@i@6+j@k@l@m@n@o@p@q@r@s@t@u@        ",
"    7@v@w@x@y@z@A@B@C@D@E@F@G@H@I@J@K@L@M@N@O@P@Q@R@S@T@        ",
"        U@V@W@X@A@Y@Z@`@ #.#+#@###$#%#&#*#=#-#;#>#,#'#)#        ",
"          !#~#{#]#^#/#(#_#:#<#[#}#|#1#2#3#4#5#6#7#8#9#0#        ",
"          a#b#c#d#e#f#g#h#i#j#k#l#m#n#o#p#q#r#s#t#u#v#w#        ",
"          x#y#z#A#B#C#D#E#F#G#H#I#J#K#L#M#N#O#P#Q#R#S#T#        ",
"            U#V#W#X#Y#Z#`# $.$+$@$#$$$%$&$*$=$-$;$>$,$          ",
"            '$)$!$~${$]$^$/$($_$:$<$[$}$|$1$2$3$4$5$6$          ",
"              7$8$9$0$a$b$c$d$e$f$g$h$i$j$k$l$m$n$o$            ",
"                p$q$r$s$t$u$v$[$[$w$x$y$z$A$B$C$D$              ",
"                  E$F$G$H$I$J$J$J$K$z$L$M$N$O$P$                ",
"                    Q$R$S$T$U$V$M$W$X$Y$Z$`$ %                  ",
"                        .%+%@%#%$%%%&%*%=%                      ",
"                                -%                              ",
"                                                                "};
